 <svg version="1.0" xmlns="http://www.w3.org/2000/svg" width="700.000000pt" height="700.000000pt" viewBox="0 0 700.000000 700.000000" preserveAspectRatio="xMidYMid meet">
<metadata>
Created by potrace 1.12, written by Peter Selinger 2001-2015
</metadata>
<g transform="translate(0.000000,700.000000) scale(0.100000,-0.100000)" fill="#fff" stroke="none">
<path d="M935 6453 c-59 -13 -91 -29 -135 -67 -27 -22 -63 -52 -80 -64 -16
-13 -44 -45 -62 -70 -17 -26 -46 -63 -64 -83 -25 -28 -34 -52 -44 -105 -8 -52
-10 -496 -8 -1759 3 -1634 4 -1691 22 -1725 10 -19 54 -80 98 -137 69 -89 87
-106 141 -133 124 -60 359 -89 446 -54 22 9 48 28 58 42 17 26 18 117 21 2052
2 1461 -1 2032 -9 2052 -19 45 -70 58 -227 57 -75 -1 -146 -3 -157 -6z"></path>
<path d="M5660 6453 c-47 -17 -82 -38 -91 -54 -14 -27 -13 -4018 2 -4056 36
-96 172 -127 369 -83 144 32 184 55 275 157 90 102 108 141 125 273 8 59 10
591 8 1715 -4 1885 5 1711 -105 1839 -35 42 -77 83 -93 91 -15 8 -51 34 -80
59 -37 31 -67 48 -102 55 -50 11 -281 14 -308 4z"></path>
<path d="M2571 6185 c-29 -8 -66 -24 -81 -35 -34 -24 -69 -104 -81 -184 -5
-34 -9 -769 -9 -1634 0 -1394 2 -1581 16 -1642 8 -38 24 -80 35 -94 19 -24
152 -86 185 -86 9 0 47 9 83 20 79 23 113 55 162 150 l34 65 0 1620 0 1620
-42 65 c-61 94 -83 120 -108 130 -47 18 -139 20 -194 5z"></path>
<path d="M4172 6190 c-79 -17 -104 -38 -140 -124 -19 -42 -38 -105 -43 -139
-5 -34 -9 -748 -9 -1600 l0 -1537 30 -88 c40 -115 54 -132 131 -160 78 -28
118 -30 193 -6 79 25 101 50 136 161 l30 94 -2 1587 -3 1587 -33 80 c-19 44
-43 90 -55 103 -34 37 -155 58 -235 42z"></path>
<path d="M4972 6190 c-79 -17 -94 -29 -144 -125 l-47 -90 2 -1620 2 -1620 27
-64 c35 -82 58 -106 127 -132 71 -27 131 -27 203 1 74 27 101 61 127 157 l21
79 0 1580 c0 1720 3 1630 -56 1745 -20 40 -34 55 -67 69 -52 23 -138 31 -195
20z"></path>
<path d="M1734 6166 c-55 -25 -84 -59 -112 -128 -16 -40 -17 -179 -20 -2126
-2 -2040 -2 -2084 17 -2127 33 -74 46 -78 238 -73 178 4 205 10 248 58 20 22
20 39 23 2069 2 1125 0 2069 -3 2098 -8 65 -97 209 -147 236 -51 27 -179 24
-244 -7z"></path>
<path d="M3337 6177 c-52 -16 -82 -48 -109 -115 l-23 -57 -3 -1620 c-2 -1454
-1 -1627 13 -1693 21 -95 47 -124 132 -153 80 -26 161 -22 231 13 40 19 52 33
79 88 68 137 64 4 61 1737 l-3 1570 -52 105 c-48 97 -56 107 -93 122 -48 19
-176 20 -233 3z"></path>
<path d="M1423 1442 c-53 -8 -88 -96 -81 -207 6 -84 25 -125 73 -155 19 -12
48 -41 64 -63 16 -23 45 -57 66 -76 46 -42 61 -77 70 -166 15 -161 39 -306 66
-394 16 -51 29 -102 29 -112 0 -37 33 -100 64 -122 59 -42 197 -22 226 34 6
11 15 71 20 132 11 150 34 288 64 384 13 43 29 102 35 131 16 75 30 99 123
199 45 48 94 108 109 132 51 80 47 181 -8 233 -53 49 -78 51 -503 52 -217 1
-405 0 -417 -2z"></path>
</g>
</svg>